<svg height='100px' width='100px'  fill="#2a9fd6" xmlns:x="http://ns.adobe.com/Extensibility/1.0/" xmlns:i="http://ns.adobe.com/AdobeIllustrator/10.0/" xmlns:graph="http://ns.adobe.com/Graphs/1.0/" xmlns="http://www.w3.org/2000/svg" xmlns:xlink="http://www.w3.org/1999/xlink" version="1.1" x="0px" y="0px" viewBox="0 0 100 100" style="enable-background:new 0 0 100 100;" xml:space="preserve"><g><g i:extraneous="self"><path d="M77.3,31.1c-6.1-2.7-14.3-4-14.3-4c3-1,8,0.5,10.8,1.2c6.1,1.3,12.6,0.8,18.8-3.5c5.1-3.5,5-9.2,5-9.2    c-1.1,1.9-9.2,10.5-24,7.2c-6.5-1.5-12.7-1.5-16.4-1.4c0.4-3.7,0.1-8.3-2-13c0,0-6.4,15.6-17.3,17.8c-1.2,2.2-3.6,6-8,9.2    c-3.3,2.5-6.6,3.8-9.2,4.6c-1.9,0.6-2.7,2.8-1.6,4.4c1.6,2.4,4.2,5.2,8.1,6.4c0,0-1.5-3.5-1-5.2c0,0,2,2.4,6.7,2.2    c0,0-2.6-1.6-2.5-4.1c0,0,2.5,2.2,6.6,1.9c0,0-2.7-0.7-2.5-3.9c0,0,5.1-0.7,9.6,0.9c-1,0.4-2.1,0.9-3.2,1.6c-2.3,1.3-4,2.7-5.4,4    c-0.4,0.3-1.1,0.8-2.1,1.1c-1.7,0.4-3.1-0.2-3.5-0.4c0,0,0.8,1.7,1.9,2.2c1.1,0.5-1.3,1.2-3.2,0.8c-1.9-0.3-3.9-1.2-3.9-1.2    c0.1,0.2,1,4.1,4.7,5.4c0.6,0.2,1.1,0.3,1.6,0.4c2.2,0.2,4.3-1,5.2-3c0-0.1,0.1-0.2,0.2-0.3c0,0,1-1.9,3.2-3.6    c2.3-1.8,6.9-3.3,12.7-3.3c3,1.7,5,5.1,4.5,8.5c-0.3,2-1.3,3.7-2.3,5.3c-3,4.8-10.1,6-15.2,7.5c-4.3,1.2-8.7,2.3-13.1,3    c-3.6,0.6-7.1,1.1-10.5,2.7C11.4,75.5,7.7,79,5.2,83.4c-1,1.8-1.8,3.8-2.4,5.8c-0.1,0.3-0.3,2.3-0.5,2.4c11.2-7,17.1-5,35.5-4.3    c18.4,0.8,24.8-10.2,24.8-10.2c-0.5,4.5-7.3,12.4-7.3,12.4c11.8-2.4,18-23.1,18-23.1c1.2,7.1-4.5,17-4.5,17    c21.2-21.4,5.3-38.7,5.3-38.7C80.5,47,84.9,57,84.9,57c0.2-3.5-0.1-7.1-1.6-10.3c-0.8-1.7-1.8-3.2-3.2-4.5    c-1.4-1.4-3.1-2.4-4.9-3.3c-1.2-0.6-2.4-1.3-3.6-2.1c-0.6-0.4-1.2-0.8-1.7-1.2c-0.5-0.4-1.3-0.8-1.7-1.4c0.5-0.1,1.2,0.2,1.6,0.3    c0.6,0.2,1.1,0.3,1.6,0.5c1.1,0.4,2.1,0.8,3.2,1.1c1.2,0.4,2.4,0.7,3.6,1c12.7,3.2,17.3-4,17.3-4C92.3,35.5,83.4,33.8,77.3,31.1z     M43.9,30.4l-0.2,1c-0.2,0.7-0.6,1.4-1.3,1.7l-2.7,1.3c-0.8,0.4-1.4-0.6-0.8-1.2l3.7-3.5C43.1,29.1,44,29.6,43.9,30.4z"></path></g></g></svg>